<?xml version="1.0" encoding="utf-8"?>
<!-- Generator: Adobe Illustrator 23.1.0, SVG Export Plug-In . SVG Version: 6.00 Build 0)  -->
<svg version="1.1" id="Слой_1" xmlns="http://www.w3.org/2000/svg" xmlns:xlink="http://www.w3.org/1999/xlink" x="0px" y="0px"
	 viewBox="0 0 24 24" style="enable-background:new 0 0 24 24;" xml:space="preserve">
<path d="M6,18v2c0,2.2,1.8,4,4,4h10c2.2,0,4-1.8,4-4V10c0-2.2-1.8-4-4-4h-2V4c0-2.2-1.8-4-4-4H4C1.8,0,0,1.8,0,4v10c0,2.2,1.8,4,4,4
	H6 M4,16c-1.1,0-2-0.9-2-2V4c0-1.1,0.9-2,2-2h10c1.1,0,2,0.9,2,2v2h-6c-2.2,0-4,1.8-4,4v6 M20,22H10c-1.1,0-2-0.9-2-2V10
	c0-1.1,0.9-2,2-2h10c1.1,0,2,0.9,2,2v10C22,21.1,21.1,22,20,22z"/>
</svg>
