<svg xmlns="http://www.w3.org/2000/svg" width="100" height="100" viewBox="0 0 100 100"><path d="M86.7 95c-2.2 0-4.3-0.9-5.8-2.4L50 61.7 19.1 92.6c-1.6 1.6-3.6 2.4-5.8 2.4S9 94.1 7.4 92.6C5.9 91 5 88.9 5 86.7s0.9-4.3 2.4-5.8L38.3 50 7.4 19.1C5.9 17.5 5 15.5 5 13.3 5 11.1 5.9 9 7.4 7.4 9 5.9 11.1 5 13.3 5c2.2 0 4.3 0.9 5.8 2.4L50 38.3 80.9 7.4C82.5 5.9 84.5 5 86.7 5c2.2 0 4.3 0.9 5.8 2.4C94.1 9 95 11.1 95 13.3c0 2.2-0.9 4.3-2.4 5.8L61.7 50 92.6 80.9c1.6 1.6 2.4 3.6 2.4 5.8s-0.9 4.3-2.4 5.8C91 94.1 88.9 95 86.7 95z" fill="#343434"/></svg>