<?xml version="1.0" encoding="utf-8"?>
<!-- Generator: Adobe Illustrator 23.0.1, SVG Export Plug-In . SVG Version: 6.00 Build 0)  -->
<svg version="1.1" id="Var2" xmlns="http://www.w3.org/2000/svg" xmlns:xlink="http://www.w3.org/1999/xlink" x="0px" y="0px"
	 viewBox="0 0 253.8 253.7" style="enable-background:new 0 0 253.8 253.7;" xml:space="preserve">
<g id="Круги">
	<g>
		<path style="fill:#343434;" d="M253.8,126.9L253.8,126.9c0,70-56.8,126.8-126.8,126.8h-0.1C56.8,253.7,0,196.9,0,126.9v0
			C0,56.8,56.8,0,126.9,0h0C196.9,0,253.8,56.8,253.8,126.9z M126.9,243.7c64.4,0,116.8-52.4,116.8-116.8
			C243.7,62.4,191.3,10,126.9,10C62.4,10,10,62.4,10,126.9c0,64.4,52.4,116.8,116.8,116.8H126.9z"/>
	</g>
</g>
<g id="Иконки_1_">
	<path id="viber_3_" style="fill:#343434;" d="M172.5,76.6c-4.9-4.2-10.7-6.7-16.8-8.3c-15.5-4.1-31.2-5.1-47.1-2.9
		c-8.1,1.1-15.8,3.2-23,7.2c-8.4,4.7-14.2,11.5-16.8,20.9c-1.8,6.7-2.7,13.6-3.1,20.5c-0.5,10.2-0.2,20.4,2.4,30.4
		c3,11.5,9.6,20,20.9,24.6c1.2,0.5,2.4,1.2,3.6,1.7c1.1,0.5,1.5,1.2,1.5,2.4c-0.1,8,0,16,0,24.3c3-2.9,5-5,6.5-6.6
		c4.4-5,8.6-9.2,13.3-14c2.3-2.4,1.4-2.3,5-2.2c4.3,0.1,11,0.2,15.3-0.1c8.1-0.6,16.2-1.7,24-4c10-3,17.9-8.3,22-18.4
		c1.1-2.7,2.1-5.4,2.8-8.2c3.9-16,3.4-32.1,0.1-48.1C181.6,88.3,178.4,81.7,172.5,76.6z M123,86.4c0.1-1.5,1-2.1,2.4-2.1
		c12.4,0.6,21.7,4.3,28.8,13.9c4.2,5.6,6.5,13.3,6.7,20.4c0,1.1,0,2.1,0,3.2c-0.1,1.2-0.6,2.1-1.9,2.1c-1.3,0-2-0.7-2.1-2.1
		c-0.3-5.2-1.4-10.3-3.4-15.2c-3.9-9.4-11.3-14.5-20.8-16.9c-2.5-0.6-5.1-1.2-7.7-1.4C123.9,88.2,122.9,87.9,123,86.4z M135.4,99.5
		c-2.5-0.9-5.1-1.6-7.7-2c-1.3-0.2-2.2-0.9-2-2.4c0.2-1.4,1.1-2,2.5-1.8c8.6,0.8,15.4,4,20,11.4c2.2,3.5,3.4,8.5,3.3,12.2
		c-0.1,2.6-0.5,3.3-2,3.3c-2.2-0.1-1.9-1.9-2-3.2c-0.3-2-0.7-4-1.3-6C144.6,105.3,141,101.4,135.4,99.5z M142.7,114
		c-0.1,0.7-0.1,1.2-0.2,1.7c-0.2,1-0.8,1.5-1.9,1.6c-1.1,0-1.6-0.6-1.9-1.5c-0.2-0.6-0.2-1.3-0.4-2c-0.7-3.5-2.7-5.8-6.1-6.7
		c-0.4-0.1-0.9-0.2-1.3-0.3c-1.1-0.3-2.4-0.3-2.5-1.9c0-1.3,1-2.1,2.8-2.2c1.2-0.1,3.1,0.5,4.2,1.1C140.1,106,142.2,109.1,142.7,114
		z M160.9,150.7c-2.4,5.4-6.5,9-12.2,10.6c-2.1,0.6-4.1,0.1-6-0.7c-26.2-11.1-45.1-29.5-55.8-56.1c-0.8-1.9-1.2-3.9-1.2-5.7
		c0-6.8,6-13.2,12.6-13.5c1.8-0.1,3.4,0.5,4.7,1.7c4.6,4.3,8.3,9.3,11,15.1c1.5,3.1,0.9,5.3-1.8,7.5c-0.4,0.4-0.9,0.7-1.3,1
		c-3.5,2.6-4.3,5.2-2.6,9.3c2.8,6.7,7.3,11.9,13.3,15.7c2.3,1.5,4.6,2.8,7.3,3.6c2.4,0.7,4.4,0,5.9-2c0.2-0.2,0.3-0.4,0.5-0.7
		c3.4-4.7,7-5.5,11.9-2.4c4.2,2.6,8.1,5.6,11.9,8.8C161.6,145.1,162.3,147.7,160.9,150.7z"/>
</g>
</svg>
