<?xml version="1.0" encoding="utf-8"?>
<!-- Generator: Adobe Illustrator 23.0.1, SVG Export Plug-In . SVG Version: 6.00 Build 0)  -->
<svg version="1.1" id="Var2" xmlns="http://www.w3.org/2000/svg" xmlns:xlink="http://www.w3.org/1999/xlink" x="0px" y="0px"
	 viewBox="0 0 253.8 253.8" style="enable-background:new 0 0 253.8 253.8;" xml:space="preserve">
<g id="Круги">
	<g>
		<path style="fill:#343434;" d="M0,126.9L0,126.9C0,56.8,56.8,0,126.9,0h0c70.1,0,126.9,56.8,126.9,126.9v0.1
			c0,70-56.8,126.8-126.8,126.8h-0.1C56.8,253.8,0,197,0,126.9z M126.9,243.7c64.4,0,116.8-52.4,116.8-116.9
			C243.8,62.4,191.3,10,126.9,10S10,62.4,10,126.9c0,64.4,52.4,116.8,116.8,116.8H126.9z"/>
	</g>
</g>
<g id="Иконки_1_">
	<path id="vk_x5F_alt_3_" style="fill-rule:evenodd;clip-rule:evenodd;fill:#343434;" d="M122.1,176.8h9.6c0,0,2.9-0.3,4.4-1.9
		c1.4-1.5,1.3-4.2,1.3-4.2s-0.2-12.9,5.8-14.8c5.9-1.9,13.5,12.5,21.5,18c6.1,4.2,10.7,3.3,10.7,3.3l21.5-0.3c0,0,11.2-0.7,5.9-9.5
		c-0.4-0.7-3.1-6.5-16-18.5c-13.5-12.5-11.7-10.5,4.6-32.1c9.9-13.2,13.8-21.2,12.6-24.7c-1.2-3.3-8.4-2.4-8.4-2.4l-24.2,0.2
		c0,0-1.8-0.2-3.1,0.6c-1.3,0.8-2.1,2.6-2.1,2.6s-3.8,10.2-8.9,18.9c-10.8,18.3-15.1,19.3-16.8,18.1c-4.1-2.6-3.1-10.6-3.1-16.3
		c0-17.7,2.7-25.1-5.2-27c-2.6-0.6-4.6-1.1-11.3-1.1c-8.6-0.1-15.9,0-20.1,2.1c-2.8,1.3-4.9,4.4-3.6,4.5c1.6,0.2,5.2,1,7.1,3.6
		c2.5,3.4,2.4,10.9,2.4,10.9s1.4,20.9-3.3,23.5c-3.3,1.8-7.7-1.9-17.3-18.5c-4.9-8.5-8.6-17.9-8.6-17.9s-0.7-1.8-2-2.7
		c-1.5-1.1-3.7-1.5-3.7-1.5l-23,0.1c0,0-3.5,0.1-4.7,1.6c-1.1,1.3-0.1,4.1-0.1,4.1s18,42.1,38.4,63.3
		C100.9,178.1,122.1,176.8,122.1,176.8L122.1,176.8L122.1,176.8z"/>
</g>
</svg>
