<?xml version="1.0" encoding="utf-8"?>
<!-- Generator: Adobe Illustrator 23.0.1, SVG Export Plug-In . SVG Version: 6.00 Build 0)  -->
<svg version="1.1" xmlns="http://www.w3.org/2000/svg" xmlns:xlink="http://www.w3.org/1999/xlink" x="0px" y="0px"
	 viewBox="0 0 253.8 253.8" style="enable-background:new 0 0 253.8 253.8;" xml:space="preserve">
<g id="Var1">
	<g id="Квадраты">
	</g>
	<g id="Иконки">
	</g>
</g>
<g id="Var2">
	<g id="Круги">
		<g>
			<path style="fill:#343434;" d="M126.8,253.8h0.1c70,0,126.8-56.8,126.8-126.8v-0.1C253.8,56.8,196.9,0,126.9,0h0
				C56.8,0,0,56.8,0,126.9v0.1C0,197,56.8,253.8,126.8,253.8z"/>
		</g>
	</g>
	<g id="Иконки_1_">
		<g id="instagram_3_">
			<path style="fill:#FFFFFF;" d="M126.9,73.5c17.4,0,19.4,0.1,26.3,0.4c6.3,0.3,9.8,1.3,12.1,2.2c3,1.2,5.2,2.6,7.5,4.9
				c2.3,2.3,3.7,4.4,4.9,7.5c0.9,2.3,2,5.7,2.2,12.1c0.3,6.9,0.4,8.9,0.4,26.3c0,17.4-0.1,19.4-0.4,26.3c-0.3,6.3-1.3,9.8-2.2,12.1
				c-1.2,3-2.6,5.2-4.9,7.5c-2.3,2.3-4.4,3.7-7.5,4.9c-2.3,0.9-5.7,2-12.1,2.2c-6.9,0.3-8.9,0.4-26.3,0.4s-19.4-0.1-26.3-0.4
				c-6.3-0.3-9.8-1.3-12.1-2.2c-3-1.2-5.2-2.6-7.5-4.9c-2.3-2.3-3.7-4.4-4.9-7.5c-0.9-2.3-2-5.7-2.2-12.1c-0.3-6.9-0.4-8.9-0.4-26.3
				c0-17.4,0.1-19.4,0.4-26.3c0.3-6.3,1.3-9.8,2.2-12.1c1.2-3,2.6-5.2,4.9-7.5c2.3-2.3,4.4-3.7,7.5-4.9c2.3-0.9,5.7-2,12.1-2.2
				C107.4,73.6,109.5,73.5,126.9,73.5 M126.9,61.8c-17.7,0-19.9,0.1-26.8,0.4c-6.9,0.3-11.7,1.4-15.8,3c-4.3,1.7-7.9,3.9-11.5,7.5
				c-3.6,3.6-5.8,7.2-7.5,11.5c-1.6,4.1-2.7,8.9-3,15.8c-0.3,6.9-0.4,9.2-0.4,26.8c0,17.7,0.1,19.9,0.4,26.8
				c0.3,6.9,1.4,11.7,3,15.8c1.7,4.3,3.9,7.9,7.5,11.5c3.6,3.6,7.2,5.8,11.5,7.5c4.1,1.6,8.9,2.7,15.8,3c6.9,0.3,9.2,0.4,26.8,0.4
				s19.9-0.1,26.8-0.4c6.9-0.3,11.7-1.4,15.8-3c4.3-1.7,7.9-3.9,11.5-7.5c3.6-3.6,5.8-7.2,7.5-11.5c1.6-4.1,2.7-8.9,3-15.8
				c0.3-6.9,0.4-9.2,0.4-26.8s-0.1-19.9-0.4-26.8c-0.3-6.9-1.4-11.7-3-15.8c-1.7-4.3-3.9-7.9-7.5-11.5c-3.6-3.6-7.2-5.8-11.5-7.5
				c-4.1-1.6-8.9-2.7-15.8-3C146.8,61.9,144.5,61.8,126.9,61.8L126.9,61.8z"/>
			<path style="fill:#FFFFFF;" d="M126.9,93.5c-18.5,0-33.4,15-33.4,33.4s15,33.4,33.4,33.4s33.4-15,33.4-33.4
				S145.3,93.5,126.9,93.5z M126.9,148.6c-12,0-21.7-9.7-21.7-21.7s9.7-21.7,21.7-21.7s21.7,9.7,21.7,21.7S138.9,148.6,126.9,148.6z
				"/>
			<circle style="fill:#FFFFFF;" cx="161.6" cy="92.1" r="7.8"/>
		</g>
	</g>
</g>
</svg>
