<?xml version="1.0" encoding="utf-8"?>
<!-- Generator: Adobe Illustrator 23.0.1, SVG Export Plug-In . SVG Version: 6.00 Build 0)  -->
<svg version="1.1" xmlns="http://www.w3.org/2000/svg" xmlns:xlink="http://www.w3.org/1999/xlink" x="0px" y="0px"
	 viewBox="0 0 253.8 253.7" style="enable-background:new 0 0 253.8 253.7;" xml:space="preserve">
<g id="Var1">
	<g id="Квадраты">
	</g>
	<g id="Иконки">
	</g>
</g>
<g id="Var2">
	<g id="Круги">
		<g>
			<path style="fill:#343434;" d="M126.9,0L126.9,0C56.8,0,0,56.8,0,126.9v0c0,70,56.8,126.8,126.8,126.8h0.1
				c70,0,126.8-56.8,126.8-126.8v0C253.8,56.8,196.9,0,126.9,0z"/>
		</g>
	</g>
	<g id="Иконки_1_">
		<path id="telegram_3_" style="fill:#FFFFFF;" d="M179.9,74.9L59.4,120.5c-6.6,1.9-6.4,8.4-1.5,10l30.2,9.4l11.6,35.4
			c1.4,3.9,2.6,5.3,5,5.4c2.5,0,3.5-0.9,6.1-3.2c3.1-2.9,7.7-7.4,15.1-14.6l31.4,23.2c5.8,3.2,10,1.5,11.4-5.4l19.7-97.4
			C190.4,74.9,185.5,72.4,179.9,74.9z M92.8,137.8l68.6-43.1c3.4-2.3,4.4,0.3,2.9,2l-57,51.2l-2.9,25.6L92.8,137.8z"/>
	</g>
</g>
</svg>
