<?xml version="1.0" encoding="utf-8"?>
<!-- Generator: Adobe Illustrator 23.0.1, SVG Export Plug-In . SVG Version: 6.00 Build 0)  -->
<svg version="1.1" id="Var2" xmlns="http://www.w3.org/2000/svg" xmlns:xlink="http://www.w3.org/1999/xlink" x="0px" y="0px"
	 viewBox="0 0 254.7 254.7" style="enable-background:new 0 0 254.7 254.7;" xml:space="preserve">
<g id="Круги">
	<g>
		<path style="fill:#343434;stroke:#343434;stroke-miterlimit:10;" d="M254.2,127.4L254.2,127.4c0,70-56.8,126.8-126.8,126.8h-0.1
			c-70,0-126.8-56.8-126.8-126.8v0C0.5,57.3,57.3,0.5,127.4,0.5h0C197.4,0.5,254.2,57.3,254.2,127.4z M127.4,244.2
			c64.4,0,116.8-52.4,116.8-116.8c0-64.4-52.4-116.9-116.9-116.9c-64.4,0-116.9,52.4-116.9,116.9c0,64.4,52.4,116.8,116.8,116.8
			H127.4z"/>
	</g>
</g>
<g id="Иконки_1_">
	<g id="whatsapp_5_">
		<g>
			<path style="fill-rule:evenodd;clip-rule:evenodd;fill:#343434;" d="M128.5,62.4c-34.9,0-63.3,28.3-63.3,63.3
				c0,12,3.3,23.1,9.1,32.7l-11.4,33.9l35-11.2c9.1,5,19.5,7.9,30.6,7.9c34.9,0,63.3-28.3,63.3-63.3
				C191.8,90.7,163.5,62.4,128.5,62.4z M128.5,178.3c-10.7,0-20.7-3.2-29-8.7l-20.2,6.5l6.6-19.6c-6.3-8.7-10-19.4-10-30.9
				c0-29,23.6-52.7,52.7-52.7c29,0,52.7,23.6,52.7,52.7C181.2,154.7,157.6,178.3,128.5,178.3z M158.2,140c-1.6-0.9-9.4-5.1-10.8-5.7
				c-1.5-0.6-2.5-0.9-3.7,0.7c-1.1,1.6-4.4,5.1-5.3,6.1c-1,1-1.9,1.1-3.5,0.3c-1.6-0.9-6.7-2.8-12.7-8.5c-4.6-4.5-7.7-9.9-8.6-11.5
				c-0.9-1.7,0-2.5,0.8-3.3c0.8-0.7,1.7-1.8,2.5-2.7c0.8-0.9,1.1-1.6,1.7-2.6c0.6-1.1,0.3-2,0-2.8c-0.4-0.8-3.3-8.9-4.5-12.2
				c-1.2-3.3-2.6-2.8-3.5-2.8c-0.9,0-2-0.2-3.1-0.2c-1.1,0-2.8,0.3-4.4,1.9c-1.5,1.6-5.9,5.3-6.2,13.3c-0.3,7.9,5.2,15.8,6,16.9
				c0.8,1.1,10.5,18.3,26.7,25.4c16.2,7.1,16.3,4.9,19.2,4.8c3-0.2,9.7-3.6,11.2-7.3c1.5-3.7,1.6-7,1.2-7.6
				C160.9,141.4,159.8,140.9,158.2,140z"/>
		</g>
	</g>
</g>
</svg>
